<svg version="1.1" id="Layer_1" xmlns="http://www.w3.org/2000/svg" xmlns:xlink="http://www.w3.org/1999/xlink" x="0px" y="0px"
	 width="100%" viewBox="0 0 681 774" enable-background="new 0 0 681 774" xml:space="preserve">

<path fill="#3B88C3" opacity="1.000000" stroke="none" 
	d="
M348.036346,143.826935 
	C369.030823,143.886612 390.025299,143.967850 411.019806,143.999573 
	C429.889130,144.028076 448.760315,144.165359 467.627319,143.954788 
	C486.816345,143.740631 504.546021,148.202484 518.726379,161.526260 
	C527.306702,169.588318 533.548523,179.604935 537.119019,191.238037 
	C541.918884,206.876419 539.382507,222.797882 539.928284,238.590714 
	C540.301880,249.402725 539.999512,249.413193 550.500000,250.999863 
	C559.270020,252.325073 567.606262,260.671661 567.887573,269.614105 
	C568.312805,283.133453 567.998779,296.676086 568.000305,310.208801 
	C568.001160,317.911316 567.941833,325.614502 568.021057,333.316223 
	C568.158691,346.692535 558.629333,356.499756 544.794006,355.014099 
	C543.814575,354.908936 542.814026,355.000336 541.142761,355.000336 
	C540.753906,357.925385 540.074524,360.758667 540.051086,363.597382 
	C539.935669,377.584991 541.022522,391.697418 535.058777,404.973480 
	C528.943970,418.585785 519.882385,429.552734 505.603851,434.832764 
	C497.892120,437.684448 489.701172,439.589020 481.560181,440.832977 
	C473.421661,442.076599 465.075928,441.963837 455.695435,442.511383 
	C455.695435,455.263214 455.695435,468.361267 455.695435,481.717651 
	C378.991852,481.717651 303.396149,481.717651 227.246216,481.717651 
	C227.246216,468.447388 227.246216,455.056641 227.246216,441.000000 
	C219.112488,441.000000 211.494324,441.349457 203.920135,440.921082 
	C191.395859,440.212830 179.320282,437.711365 168.709595,430.341675 
	C155.028488,420.839417 146.634018,407.787079 144.178284,391.511383 
	C142.451904,380.069672 142.385681,368.377472 141.566620,356.631958 
	C137.546417,355.521118 132.252625,354.520081 127.317497,352.598114 
	C117.211685,348.662506 113.245438,340.029602 113.151726,330.085205 
	C112.968628,310.655945 113.153641,291.190948 114.188858,271.794250 
	C114.835373,259.680481 120.053612,253.977859 132.656769,251.060562 
	C135.831665,250.325668 139.127075,250.111465 143.000504,249.569305 
	C143.000504,237.624344 142.557877,225.493912 143.121704,213.410461 
	C143.716858,200.655838 145.861145,188.158188 151.777557,176.486740 
	C160.338364,159.598633 174.542648,150.292938 192.474060,147.240982 
	C205.561264,145.013519 219.015930,144.320709 232.323288,144.136734 
	C263.314850,143.708252 294.316406,143.974121 325.313751,144.042313 
	C328.235352,144.048737 331.155609,144.647415 334.905945,144.990356 
	C339.987518,146.194534 344.190918,146.872330 348.036346,143.826935 
M358.500000,405.001129 
	C385.821625,405.000275 413.143494,405.059753 440.464691,404.951263 
	C446.422211,404.927612 452.434418,404.704681 458.320984,403.867432 
	C468.524902,402.416199 476.608582,397.351898 480.025238,387.262573 
	C481.848938,381.877350 482.837860,375.946655 482.862579,370.256287 
	C483.073822,321.611115 483.007874,272.964539 482.926361,224.318542 
	C482.918335,219.528198 482.498657,214.704849 481.842712,209.955856 
	C480.151489,197.710709 473.348541,189.537781 461.325531,186.473602 
	C456.578827,185.263855 451.469666,185.106857 446.524719,185.100525 
	C380.552612,185.016068 314.580383,185.013184 248.608261,185.087708 
	C241.650696,185.095566 234.655960,185.378784 227.745163,186.139832 
	C216.246750,187.406143 206.336884,191.537125 202.794144,203.902679 
	C201.350204,208.942612 200.214844,214.279419 200.193665,219.486252 
	C199.984818,270.796997 199.971237,322.108948 200.095657,373.420105 
	C200.114029,380.998810 202.612854,388.196350 207.073380,394.334900 
	C212.652557,402.012848 220.698975,405.012909 230.053741,405.006866 
	C272.535828,404.979462 315.017914,404.998688 358.500000,405.001129 
z"/>
<path fill="#C7E5FA" opacity="1.000000" stroke="none" 
	d="
M152.075851,495.166656 
	C153.904938,495.110626 155.734024,495.005707 157.563110,495.005585 
	C279.193512,494.997894 400.823944,494.995239 522.454346,495.029327 
	C524.362366,495.029846 526.270264,495.491180 528.547119,496.365753 
	C528.592834,499.761139 527.988831,502.528046 527.987061,505.295349 
	C527.931030,591.475403 527.933655,677.655518 527.927368,763.835693 
	C525.890686,764.224243 523.854187,764.951965 521.817322,764.952942 
	C399.539307,765.010254 277.261292,765.007812 154.182770,764.837158 
	C152.939407,762.483521 152.110992,760.304199 152.109299,758.124146 
	C152.043762,673.342407 152.053452,588.560608 152.054596,503.778809 
	C152.054626,500.908081 152.068451,498.037384 152.075851,495.166656 
z"/>
<path fill="#C8E6FA" opacity="1.000000" stroke="none" 
	d="
M99.869865,767.778198 
	C82.387314,767.851440 64.875389,768.589050 47.430180,767.817749 
	C28.637232,766.986816 8.907206,748.744629 6.998373,731.362244 
	C6.267773,724.709106 5.120001,718.044556 5.089869,711.381042 
	C4.909878,671.576050 4.849845,631.768799 5.123179,591.964844 
	C5.180535,583.612488 6.258365,575.304749 9.807940,567.314392 
	C14.644506,556.426880 22.432833,549.228333 33.322754,545.010620 
	C45.297318,540.372742 57.871769,540.029236 70.447220,540.052673 
	C79.525772,540.069641 88.603432,540.559998 98.171951,540.792664 
	C99.092628,546.498535 99.916595,552.252686 99.890961,558.002991 
	C99.679886,605.357605 99.172401,652.711182 99.050499,700.065857 
	C98.992393,722.635803 99.576607,745.207336 99.869865,767.778198 
z"/>
<path fill="#C8E6FA" opacity="1.000000" stroke="none" 
	d="
M585.028564,541.914612 
	C585.936157,541.611328 586.836121,541.069885 587.752380,541.040833 
	C600.000305,540.652344 612.289612,539.570251 624.490112,540.194763 
	C639.703003,540.973450 654.410217,544.253113 665.590027,556.074402 
	C672.936829,563.842773 676.848877,573.225464 676.902954,583.724121 
	C677.130615,627.877380 677.342590,672.036804 676.789124,716.184265 
	C676.623474,729.398743 673.885986,742.438293 665.219849,753.523254 
	C658.250732,762.437561 649.073486,767.168945 638.312134,767.822144 
	C621.772278,768.826111 605.162170,768.694580 588.580505,768.951660 
	C587.020325,768.975830 585.449829,768.335266 583.644043,767.554932 
	C583.605225,765.157104 583.981567,763.207764 583.982361,761.258301 
	C584.010742,690.393311 583.994812,619.528259 584.045532,548.663330 
	C584.047180,546.413513 584.686523,544.164185 585.028564,541.914612 
z"/>
<path fill="#3B88C3" opacity="1.000000" stroke="none" 
	d="
M585.014771,541.504822 
	C584.686523,544.164185 584.047180,546.413513 584.045532,548.663330 
	C583.994812,619.528259 584.010742,690.393311 583.982361,761.258301 
	C583.981567,763.207764 583.605225,765.157104 583.223511,767.476318 
	C565.296936,767.846130 547.550781,767.846130 529.484497,767.846130 
	C529.213440,766.682434 528.931946,765.473877 528.288940,764.050476 
	C527.933655,677.655518 527.931030,591.475403 527.987061,505.295349 
	C527.988831,502.528046 528.592834,499.761139 528.917358,496.579529 
	C550.159058,493.950073 563.987793,500.271362 577.087097,519.349670 
	C581.610352,525.937500 583.827393,533.313965 585.014771,541.504822 
z"/>
<path fill="#3B88C3" opacity="1.000000" stroke="none" 
	d="
M100.339218,767.869263 
	C99.576607,745.207336 98.992393,722.635803 99.050499,700.065857 
	C99.172401,652.711182 99.679886,605.357605 99.890961,558.002991 
	C99.916595,552.252686 99.092628,546.498535 98.440781,540.440674 
	C99.133766,536.039490 99.733749,531.842407 101.015411,527.865051 
	C107.922104,506.431854 130.985382,493.788086 151.703491,495.089752 
	C152.068451,498.037384 152.054626,500.908081 152.054596,503.778809 
	C152.053452,588.560608 152.043762,673.342407 152.109299,758.124146 
	C152.110992,760.304199 152.939407,762.483521 153.720261,764.888306 
	C154.476227,768.711060 151.882492,767.991028 149.866943,767.991272 
	C133.514160,767.993591 117.161369,767.973511 100.339218,767.869263 
z"/>
<path fill="#DC1B1A" opacity="1.000000" stroke="none" 
	d="
M334.906982,86
	C327.011963,85 320.303009,81.398659 314.928711,75.432693 
	C305.087372,64.507927 300.650116,51.858135 304.404327,37.419819 
	C308.246613,22.642864 318.476318,13.899618 333.106567,10.052893 
	C352.788269,4.877994 376.422760,19.190380 379.293976,41.487762 
	C382.048615, 62.879765 367.064941, 85 347.943726, 86
	C343.027802, 90 338.967407,88 334.906982, 90
z"/>

<path fill="#0B2F5C" opacity="1.000000" stroke="none" 
	d="
M334.940155,86 
	C339, 86 343, 86 347.5, 86
	
	C348, 125.5 348, 125.5 352, 144
	C344, 146.9 338, 146.2 330, 144.5
	C334, 125.5 334.5, 106.25 335, 86 
z"/>

<path fill="#C8E6FA" opacity="1.000000" stroke="none" 
	d="
M358.000000,405.001129 
	C315.017914,404.998688 272.535828,404.979462 230.053741,405.006866 
	C220.698975,405.012909 212.652557,402.012848 207.073380,394.334900 
	C202.612854,388.196350 200.114029,380.998810 200.095657,373.420105 
	C199.971237,322.108948 199.984818,270.796997 200.193665,219.486252 
	C200.214844,214.279419 201.350204,208.942612 202.794144,203.902679 
	C206.336884,191.537125 216.246750,187.406143 227.745163,186.139832 
	C234.655960,185.378784 241.650696,185.095566 248.608261,185.087708 
	C314.580383,185.013184 380.552612,185.016068 446.524719,185.100525 
	C451.469666,185.106857 456.578827,185.263855 461.325531,186.473602 
	C473.348541,189.537781 480.151489,197.710709 481.842712,209.955856 
	C482.498657,214.704849 482.918335,219.528198 482.926361,224.318542 
	C483.007874,272.964539 483.073822,321.611115 482.862579,370.256287 
	C482.837860,375.946655 481.848938,381.877350 480.025238,387.262573 
	C476.608582,397.351898 468.524902,402.416199 458.320984,403.867432 
	C452.434418,404.704681 446.422211,404.927612 440.464691,404.951263 
	C413.143494,405.059753 385.821625,405.000275 358.000000,405.001129 
z"/>

<path fill="#3B88C3" opacity="1.000000" stroke="none" 
    d="
    M 203, 512
    C 235.5, 512 241, 512 246, 513
    C 255, 514 263, 522 266, 530
    C 266, 530 270, 546 266, 567
    C 266, 568 263, 576 255, 578
    C 245, 580 243, 578.5 246, 579.1
    C 245, 579 203, 579 203, 579
    C 203, 578.8 185, 581 179, 568
    C 179, 568 175, 556 179, 530
    C 179, 530 181, 512 203, 512
    z"/>

<path fill="#3B88C3" opacity="1.000000" stroke="none" 
    d="
    M 203, 599
    C 235.5, 599 241, 599 246, 600
    C 255, 601 263, 609 266, 617
    C 266, 617 270, 633 266, 654
    C 266, 655 263, 663 255, 665
    C 245, 667 243, 665.5 246, 666.1
    C 245, 666 203, 666 203, 666
    C 203, 665.8 185, 668 179, 655
    C 179, 655 175, 643 179, 617
    C 179, 617 181, 599 203, 599
    z"/>

<path fill="#3B88C3" opacity="1.000000" stroke="none" 
    d="
    M 203, 686 
    C 235.5, 686 241, 686 246, 687
    C 255, 688 263, 696 266, 704
    C 266, 704 270, 720 266, 741
    C 266, 742 263, 750 255, 752
    C 245, 754 243, 752.5 246, 753.1
    C 245, 753 203, 753 203, 753
    C 203, 752.8 185, 755 179, 742
    C 179, 742 175, 730 179, 704
    C 179, 704 181, 686 203, 686
    z"/>

<path fill="#3B88C3" opacity="1.000000" stroke="none" 
    d="
    M 323, 512
    C 355.5, 512 361, 512 366, 513
    C 375, 514 383, 522 386, 530
    C 386, 530 390, 546 386, 567
    C 386, 568 383, 576 375, 578
    C 365, 580 363, 578.5 366, 579.1
    C 365, 579 323, 579 323, 579
    C 323, 578.8 305, 581 299, 568
    C 299, 568 295, 556 299, 530
    C 299, 530 301, 512 323, 512
    z"/>

<path fill="#3B88C3" opacity="1.000000" stroke="none" 
    d="
    M 323, 599
    C 355.5, 599 361, 599 366, 600
    C 375, 601 383, 609 386, 617
    C 386, 617 390, 633 386, 654
    C 386, 655 383, 663 375, 665
    C 365, 667 363, 665.5 366, 666.1
    C 365, 666 323, 666 323, 666
    C 323, 665.8 305, 668 299, 655
    C 299, 655 295, 643 299, 617
    C 299, 617 301, 599 323, 599
    z"/>

<path fill="#3B88C3" opacity="1.000000" stroke="none" 
    d="
    M 323, 686 
    C 355.5, 686 361, 686 366, 687
    C 375, 688 383, 696 386, 704
    C 386, 704 390, 720 386, 741
    C 386, 742 383, 750 375, 752
    C 365, 754 363, 752.5 366, 753.1
    C 365, 753 323, 753 323, 753
    C 323, 752.8 305, 755 299, 742
    C 299, 742 295, 730 299, 704
    C 299, 704 301, 686 323, 686
    z"/>

<path fill="#3B88C3" opacity="1.000000" stroke="none" 
    d="
    M 443, 512
    C 475.5, 512 481, 512 486, 513
    C 495, 514 503, 522 506, 530
    C 506, 530 510, 546 506, 567
    C 506, 568 503, 576 495, 578
    C 485, 580 483, 578.5 486, 579.1
    C 485, 579 443, 579 443, 579
    C 443, 578.8 425, 581 419, 568
    C 419, 568 415, 556 419, 530
    C 419, 530 421, 512 443, 512
    z"/>

<path fill="#3B88C3" opacity="1.000000" stroke="none" 
    d="
    M 443, 599
    C 475.5, 599 481, 599 486, 600
    C 495, 601 503, 609 506, 617
    C 506, 617 510, 633 506, 654
    C 506, 655 503, 663 495, 665
    C 485, 667 483, 665.5 486, 666.1
    C 485, 666 443, 666 443, 666
    C 443, 665.8 425, 668 419, 655
    C 419, 655 415, 643 419, 617
    C 419, 617 421, 599 443, 599
    z"/>

<path fill="#3B88C3" opacity="1.000000" stroke="none" 
    d="
    M 443, 686 
    C 475.5, 686 481, 686 486, 687
    C 495, 688 503, 696 506, 704
    C 506, 704 510, 720 506, 741
    C 506, 742 503, 750 495, 752
    C 485, 754 483, 752.5 486, 753.1
    C 485, 753 443, 753 443, 753
    C 443, 752.8 425, 755 419, 742
    C 419, 742 415, 730 419, 704
    C 419, 704 421, 686 443, 686
    z"/>

<path fill="#0C305D" opacity="1.000000" stroke="none" 
	d="
M254.678253,247.817291 
	C263.133881,237.546036 274.993347,236.708084 284.520813,241.134125 
	C293.489502,245.300583 297.399872,252.948990 297.576263,262.272034 
	C297.745667,271.227844 293.961151,278.768951 286.175873,283.653778 
	C276.198547,289.914032 265.562073,289.252594 257.696930,282.253448 
	C250.037109,275.437073 247.655380,262.272827 252.262573,251.981445 
	C252.868408,250.628159 253.691055,249.371918 254.678253,247.817291 
z"/>
<path fill="#0C305D" opacity="1.000000" stroke="none" 
	d="
M389.639038,277.159119 
	C382.565247,263.330597 384.297058,251.912613 394.860565,243.588364 
	C402.233246,237.778534 410.661255,237.092453 419.188782,240.602036 
	C427.912842,244.192520 432.364899,251.115311 433.094482,260.485901 
	C433.935089,271.282959 429.675537,279.311646 420.446686,285.035370 
	C411.251312,290.738342 396.201324,286.310059 389.639038,277.159119 
z"/>
<path fill="#0D315E" opacity="1.000000" stroke="none" 
	d="
M332.250916,368.005768 
	C316.032257,366.397949 301.351868,361.816833 288.472198,352.325623 
	C286.489929,350.864807 284.239655,349.375214 283.054565,347.348572 
	C282.097198,345.711365 281.769196,342.850891 282.574585,341.238800 
	C283.780090,338.825897 286.258301,338.512787 288.942474,340.131226 
	C296.119293,344.458405 302.982239,349.945984 310.779816,352.488342 
	C338.238190,361.441040 364.889191,360.132202 389.274231,342.767548 
	C392.492462,340.475861 394.689117,336.390533 399.828644,339.075348 
	C403.438232,340.960968 404.573608,343.059753 401.490204,345.849091 
	C397.504150,349.455048 392.910797,352.468262 388.312561,355.304962 
	C371.251892,365.829987 352.536713,369.389099 332.250916,368.005768 
z"/>
</svg>